<svg xmlns="http://www.w3.org/2000/svg" version="1.1" xmlns:xlink="http://www.w3.org/1999/xlink" xmlns:svgjs="http://svgjs.com/svgjs" width="1440" height="560" preserveAspectRatio="none" viewBox="0 0 1440 560"><g mask="url(&quot;#SvgjsMask3204&quot;)" fill="none"><rect width="1440" height="560" x="0" y="0" fill="url(#SvgjsLinearGradient3205)"></rect><path d="M1440 0L895.24 0L1440 44.61z" fill="rgba(255, 255, 255, .1)"></path><path d="M895.24 0L1440 44.61L1440 314.65000000000003L414.86 0z" fill="rgba(255, 255, 255, .075)"></path><path d="M414.8600000000001 0L1440 314.65000000000003L1440 407.17L200.66000000000014 0z" fill="rgba(255, 255, 255, .05)"></path><path d="M200.66000000000008 0L1440 407.17L1440 444L117.70000000000009 0z" fill="rgba(255, 255, 255, .025)"></path><path d="M0 560L102.06 560L0 527.1z" fill="rgba(0, 0, 0, .1)"></path><path d="M0 527.1L102.06 560L653.4200000000001 560L0 345.61z" fill="rgba(0, 0, 0, .075)"></path><path d="M0 345.61L653.4200000000001 560L1098.0800000000002 560L0 262.65000000000003z" fill="rgba(0, 0, 0, .05)"></path><path d="M0 262.65L1098.0800000000002 560L1287.89 560L0 208.80999999999997z" fill="rgba(0, 0, 0, .025)"></path></g><defs><mask id="SvgjsMask3204"><rect width="1440" height="560" fill="#ffffff"></rect></mask><linearGradient x1="15.28%" y1="139.29%" x2="84.72%" y2="-39.29%" gradientUnits="userSpaceOnUse" id="SvgjsLinearGradient3205"><stop stop-color="rgba(69, 176, 159, 0.62)" offset="0"></stop><stop stop-color="rgba(255, 255, 255, 1)" offset="0.82"></stop></linearGradient></defs></svg>